<svg xmlns="http://www.w3.org/2000/svg" viewBox="0 0 128 128">
  <defs>
    <radialGradient id="kanzashi-aura" cx="50%" cy="48%" r="52%">
      <stop offset="0%" stop-color="#5b8dd9" stop-opacity="0.45"/>
      <stop offset="100%" stop-color="#5b8dd9" stop-opacity="0"/>
    </radialGradient>
  </defs>
  <circle cx="64" cy="60" r="52" fill="url(#kanzashi-aura)"/>
  <!-- 簪の軸 -->
  <path d="M40 112 L 82 40" fill="none" stroke="#5a2030" stroke-width="8" stroke-linecap="round"/>
  <path d="M40 112 L 82 40" fill="none" stroke="#c9a24b" stroke-width="4.5" stroke-linecap="round"/>
  <!-- 玉飾り -->
  <circle cx="84" cy="37" r="9" fill="#e2574c" stroke="#2a1f3d" stroke-width="4"/>
  <circle cx="84" cy="37" r="3.5" fill="#fff6cf"/>
  <!-- びら飾り -->
  <path d="M89 44 C 91 52 91 60 89 66" fill="none" stroke="#c9a24b" stroke-width="2.5"/>
  <path d="M80 46 C 80 54 79 60 78 65" fill="none" stroke="#c9a24b" stroke-width="2.5"/>
  <rect x="86" y="66" width="5" height="8" rx="1.5" fill="#ffb347" stroke="#5a2030" stroke-width="2.5"/>
  <rect x="75" y="65" width="5" height="8" rx="1.5" fill="#ffb347" stroke="#5a2030" stroke-width="2.5"/>
  <!-- 狐火(二又にゆらめく炎) -->
  <path d="M32 26 C 33 32 28 36 27 44 C 26 53 30 60 37 60 C 44 60 48 54 47 45 C 46.5 40 43 36 42 30 C 40 34 38 36 36 33 C 34 30 33 29 32 26 Z"
        fill="#5b8dd9" stroke="#2a1f3d" stroke-width="4" stroke-linejoin="round"/>
  <path d="M36 42 C 38 46 41 48 41 52 C 41 56 39 58 36 58 C 33 58 31 56 31 52 C 31 48 34 46 36 42 Z" fill="#fff6cf" opacity="0.85"/>
  <path d="M96 54 C 96.5 58 93.5 61 93 66 C 92.5 72 96 76 100 76 C 104.5 76 107.5 72 107 66 C 106.6 62 104 59.5 103.5 56 C 102.5 58.5 101 60 99.7 58 C 98.5 56.2 97 55.5 96 54 Z"
        fill="#5b8dd9" stroke="#2a1f3d" stroke-width="3.5" stroke-linejoin="round"/>
  <path d="M100 64 C 101 66.5 103 67.5 103 70 C 103 72.5 101.7 74 100 74 C 98.3 74 97 72.5 97 70 C 97 67.5 99 66.5 100 64 Z" fill="#fff6cf" opacity="0.85"/>
  <path d="M56 88 C 55 92 51.5 94 51 98.5 C 50.6 102.5 53 105 56 105 C 59 105 61.4 102.5 61 98.5 C 60.5 94 57 92 56 88 Z"
        fill="#5b8dd9" stroke="#2a1f3d" stroke-width="3.5" stroke-linejoin="round"/>
  <circle cx="56" cy="99" r="2.2" fill="#fff6cf" opacity="0.85"/>
</svg>
