<svg xmlns="http://www.w3.org/2000/svg" viewBox="0 0 128 128">
  <!-- 白髪(ざんばら) -->
  <path d="M64 10 C 87 10 101 25 102 44 C 103 61 100 76 106 91 L 95 87 L 98 106 L 87 97 L 85 110 L 76 99 L 64 108 L 52 99 L 43 110 L 41 97 L 30 106 L 33 87 L 22 91 C 28 76 25 61 26 44 C 27 25 41 10 64 10 Z" fill="#f5f0e6" stroke="#5a2030" stroke-width="5" stroke-linejoin="round"/>
  <!-- 着物 -->
  <path d="M50 70 C 44 78 41 92 42 107 L 86 107 C 87 92 84 78 78 70 Z" fill="#5eb87a" stroke="#5a2030" stroke-width="5" stroke-linejoin="round"/>
  <path d="M57 71 L 64 84 M 71 71 L 64 84" stroke="#fff6cf" stroke-width="4" stroke-linecap="round" fill="none"/>
  <path d="M43 92 L 85 92 L 85 98 L 43 98 Z" fill="#5a2030"/>
  <!-- 顔 -->
  <path d="M46 52 C 46 32 54 24 64 24 C 74 24 82 32 82 52 C 82 66 76 74 64 74 C 52 74 46 66 46 52 Z" fill="#eec27d" stroke="#5a2030" stroke-width="5" stroke-linejoin="round"/>
  <!-- 前髪 -->
  <path d="M45 43 C 45 26 53 20 64 20 C 75 20 83 26 83 43 L 78 36 L 73 41 L 68 35 L 64 40 L 60 35 L 55 41 L 50 36 Z" fill="#f5f0e6" stroke="#5a2030" stroke-width="4" stroke-linejoin="round"/>
  <!-- 目(血走り気味の目) -->
  <circle cx="54" cy="49" r="5" fill="#fff6cf" stroke="#5a2030" stroke-width="3"/>
  <circle cx="74" cy="49" r="5" fill="#fff6cf" stroke="#5a2030" stroke-width="3"/>
  <circle cx="54.5" cy="50" r="2.1" fill="#5a2030"/>
  <circle cx="73.5" cy="50" r="2.1" fill="#5a2030"/>
  <path d="M47 43 l 6 2.5 M 81 43 l -6 2.5" stroke="#5a2030" stroke-width="2.5" stroke-linecap="round" fill="none"/>
  <path d="M64 51 q 2.5 2.5 0 5" stroke="#5a2030" stroke-width="2.5" stroke-linecap="round" fill="none"/>
  <!-- 大口 -->
  <path d="M52 60 C 56 57 72 57 76 60 C 76 68 71 73 64 73 C 57 73 52 68 52 60 Z" fill="#5a2030" stroke="#5a2030" stroke-width="3" stroke-linejoin="round"/>
  <ellipse cx="64" cy="69.5" rx="5.5" ry="3" fill="#e2574c"/>
  <path d="M53.5 59.5 L 56.5 64 L 59.5 59.5 L 62 64 L 64.5 59.5 L 67 64 L 69.5 59.5 L 72.5 64 L 75.5 59.5 Z" fill="#f5f0e6"/>
  <!-- しわ・頬 -->
  <path d="M48 57 q 3 2 3 5 M 80 57 q -3 2 -3 5" stroke="#5a2030" stroke-width="2" stroke-linecap="round" fill="none" opacity="0.7"/>
  <circle cx="48" cy="55" r="3.5" fill="#e2574c" opacity="0.4"/>
  <circle cx="80" cy="55" r="3.5" fill="#e2574c" opacity="0.4"/>
</svg>
